<svg xmlns="http://www.w3.org/2000/svg" xmlns:xlink="http://www.w3.org/1999/xlink" width="327" height="433" viewBox="0 0 327 433">
  <defs>
    <filter id="Ret창ngulo_2355" x="0" y="0" width="327" height="433" filterUnits="userSpaceOnUse">
      <feOffset dy="3" input="SourceAlpha"/>
      <feGaussianBlur stdDeviation="4.5" result="blur"/>
      <feFlood flood-opacity="0.349"/>
      <feComposite operator="in" in2="blur"/>
      <feComposite in="SourceGraphic"/>
    </filter>
  </defs>
  <g id="add_IMG_mvl" data-name="add IMG mvl" transform="translate(-16.5 -440.5)">
    <g transform="matrix(1, 0, 0, 1, 16.5, 440.5)" filter="url(#Ret창ngulo_2355)">
      <rect id="Ret창ngulo_2355-2" data-name="Ret창ngulo 2355" width="300" height="406" rx="15" transform="translate(13.5 10.5)" fill="#cecece"/>
    </g>
    <g id="image-svgrepo-com" transform="translate(58 532)">
      <path id="Caminho_8773" data-name="Caminho 8773" d="M271,123.481v33.853a3.894,3.894,0,0,0,7.787,0V123.481a3.894,3.894,0,1,0-7.787,0Z" transform="translate(-130.31 -57.504)" fill="#858585"/>
      <path id="Caminho_8774" data-name="Caminho 8774" d="M344.318,327.8l-30.392-30.392a3.894,3.894,0,0,0-5.506,0l-2.753,2.753-5.63-5.63a50.672,50.672,0,1,0-5.506,5.507l5.63,5.63-2.753,2.753a3.894,3.894,0,0,0,0,5.507L327.8,344.317a3.894,3.894,0,0,0,5.506,0L344.319,333.3a3.892,3.892,0,0,0,0-5.506ZM218.786,261.615a42.83,42.83,0,1,1,42.83,42.83A42.878,42.878,0,0,1,218.786,261.615Zm111.767,74.444-24.886-24.886,2.752-2.753,2.755-2.755,24.886,24.886Z" transform="translate(-101.459 -101.459)" fill="#858585"/>
      <path id="Caminho_8775" data-name="Caminho 8775" d="M119,202.986H7.787V7.787H109.754V50.4a3.893,3.893,0,0,0,3.894,3.894h42.615V97.858a3.894,3.894,0,0,0,7.787,0V50.4a3.88,3.88,0,0,0-.02-.389c-.009-.1-.026-.189-.042-.283-.006-.031-.008-.063-.015-.094-.022-.112-.051-.221-.083-.328,0-.013-.006-.027-.01-.04-.034-.111-.073-.219-.116-.324l-.012-.033c-.042-.1-.09-.2-.14-.3-.008-.016-.015-.033-.023-.049-.048-.09-.1-.176-.156-.262-.014-.022-.025-.045-.04-.066-.053-.08-.112-.156-.171-.232-.019-.025-.036-.051-.057-.075-.074-.09-.153-.175-.234-.259l-.022-.024L116.4,1.14l-.03-.026c-.081-.079-.165-.156-.252-.228-.029-.023-.059-.043-.088-.065-.072-.056-.143-.111-.218-.161-.026-.018-.055-.032-.081-.049-.081-.051-.162-.1-.247-.147l-.058-.028c-.094-.049-.189-.1-.288-.136L115.1.284c-.1-.042-.211-.082-.32-.115l-.042-.011c-.107-.031-.215-.06-.326-.082-.033-.007-.066-.009-.1-.015-.092-.016-.184-.032-.278-.042a3.859,3.859,0,0,0-.388-.02H3.894A3.893,3.893,0,0,0,0,3.894V206.879a3.893,3.893,0,0,0,3.894,3.894H119a3.894,3.894,0,1,0,0-7.787ZM117.541,13.293l33.215,33.215H117.541V13.293Z" fill="#858585"/>
      <path id="Caminho_8776" data-name="Caminho 8776" d="M276.04,241a35.042,35.042,0,1,0,35.042,35.042A35.082,35.082,0,0,0,276.04,241Zm0,62.3A27.255,27.255,0,1,1,303.3,276.04,27.286,27.286,0,0,1,276.04,303.3Z" transform="translate(-115.884 -115.884)" fill="#858585"/>
      <path id="Caminho_8777" data-name="Caminho 8777" d="M72.629,182.558l32.8,34.613a3.893,3.893,0,0,0,5.651,0l22.8-24.056,1.94,2.046a3.894,3.894,0,0,0,5.652-5.357l-4.766-5.029a3.893,3.893,0,0,0-5.652,0l-22.8,24.056-32.8-34.613a3.893,3.893,0,0,0-5.651,0L31.068,215.09A3.893,3.893,0,0,0,30,217.768v56.726a3.893,3.893,0,0,0,3.894,3.894h86.753a3.894,3.894,0,0,0,0-7.787H37.787V219.32Z" transform="translate(-14.426 -83.189)" fill="#858585"/>
      <path id="Caminho_8778" data-name="Caminho 8778" d="M149.146,145.671a16.405,16.405,0,1,0,16.405-16.405A16.424,16.424,0,0,0,149.146,145.671Zm25.023,0a8.618,8.618,0,1,1-8.618-8.618A8.628,8.628,0,0,1,174.169,145.671Z" transform="translate(-71.717 -62.158)" fill="#858585"/>
      <path id="Caminho_8779" data-name="Caminho 8779" d="M112.5,30h-78.6A3.893,3.893,0,0,0,30,33.894v92.471a3.894,3.894,0,1,0,7.787,0V37.787H112.5a3.894,3.894,0,0,0,0-7.787Z" transform="translate(-14.426 -14.426)" fill="#858585"/>
    </g>
  </g>
</svg>
