<svg xmlns="http://www.w3.org/2000/svg" width="800" height="400" viewBox="0 0 800 400">
  <g id="add_img_web" data-name="add img web" transform="translate(-123 -393)">
    <rect id="Retângulo_2375" data-name="Retângulo 2375" width="800" height="400" rx="15" transform="translate(123 393)" fill="#cecece"/>
    <g id="image-svgrepo-com" transform="translate(364 434)">
      <path id="Caminho_8773" data-name="Caminho 8773" d="M271,124.661v44.119a5.074,5.074,0,0,0,10.149,0V124.661a5.074,5.074,0,1,0-10.149,0Z" transform="translate(-87.642 -38.675)" fill="#858585"/>
      <path id="Caminho_8774" data-name="Caminho 8774" d="M384.751,363.222l-39.609-39.61a5.075,5.075,0,0,0-7.176,0l-3.588,3.588-7.338-7.337a66.04,66.04,0,1,0-7.176,7.177l7.338,7.337-3.588,3.588a5.075,5.075,0,0,0,0,7.177l39.609,39.609a5.075,5.075,0,0,0,7.176,0L384.752,370.4a5.073,5.073,0,0,0,0-7.176Zm-163.6-86.256a55.819,55.819,0,1,1,55.819,55.819A55.882,55.882,0,0,1,221.147,276.966Zm145.663,97.021-32.433-32.433,3.587-3.587,3.59-3.59,32.433,32.434Z" transform="translate(-68.238 -68.238)" fill="#858585"/>
      <path id="Caminho_8775" data-name="Caminho 8775" d="M155.088,264.547H10.149V10.149H143.039v55.54a5.074,5.074,0,0,0,5.074,5.074h55.54v56.774a5.074,5.074,0,0,0,10.149,0V65.689a5.055,5.055,0,0,0-.026-.507c-.012-.124-.034-.247-.055-.369-.007-.041-.011-.083-.019-.123-.029-.145-.066-.288-.108-.428,0-.017-.008-.035-.014-.052-.044-.144-.1-.285-.152-.423l-.016-.043c-.055-.132-.117-.26-.182-.386-.011-.021-.02-.043-.03-.064-.063-.117-.133-.229-.2-.341-.018-.028-.033-.058-.052-.086-.07-.1-.146-.2-.223-.3-.025-.032-.047-.066-.074-.1-.1-.117-.2-.229-.305-.337l-.028-.031L151.7,1.486c-.012-.012-.026-.022-.039-.035-.106-.1-.214-.2-.329-.3-.037-.03-.076-.056-.114-.085-.093-.072-.186-.145-.284-.21-.035-.023-.071-.042-.106-.064-.106-.067-.211-.133-.321-.192-.024-.013-.05-.024-.075-.036-.122-.064-.247-.124-.375-.177l-.05-.018c-.137-.055-.275-.106-.417-.15l-.055-.014c-.139-.041-.281-.078-.425-.107-.043-.009-.087-.012-.13-.02-.12-.021-.24-.042-.363-.054A5.029,5.029,0,0,0,148.114,0H5.074A5.074,5.074,0,0,0,0,5.074V269.621A5.074,5.074,0,0,0,5.074,274.7H155.088a5.074,5.074,0,1,0,0-10.149Zm-1.9-247.222,43.288,43.288H153.188V17.325Z" fill="#858585"/>
      <path id="Caminho_8776" data-name="Caminho 8776" d="M286.668,241a45.67,45.67,0,1,0,45.67,45.67A45.722,45.722,0,0,0,286.668,241Zm0,81.191a35.521,35.521,0,1,1,35.521-35.521A35.561,35.561,0,0,1,286.668,322.189Z" transform="translate(-77.94 -77.94)" fill="#858585"/>
      <path id="Caminho_8777" data-name="Caminho 8777" d="M85.558,185.456l42.753,45.11a5.073,5.073,0,0,0,7.365,0l29.714-31.351,2.528,2.667a5.075,5.075,0,0,0,7.367-6.982l-6.211-6.554a5.074,5.074,0,0,0-7.366,0L131.994,219.7l-42.753-45.11a5.073,5.073,0,0,0-7.365,0L31.392,227.853A5.073,5.073,0,0,0,30,231.344v73.929a5.074,5.074,0,0,0,5.074,5.074H148.138a5.074,5.074,0,1,0,0-10.149H40.149V233.367Z" transform="translate(-9.702 -55.95)" fill="#858585"/>
      <path id="Caminho_8778" data-name="Caminho 8778" d="M149.146,150.646a21.38,21.38,0,1,0,21.38-21.38A21.4,21.4,0,0,0,149.146,150.646Zm32.612,0a11.231,11.231,0,1,1-11.231-11.231A11.244,11.244,0,0,1,181.758,150.646Z" transform="translate(-48.235 -41.805)" fill="#858585"/>
      <path id="Caminho_8779" data-name="Caminho 8779" d="M137.518,30H35.074A5.074,5.074,0,0,0,30,35.074V155.589a5.074,5.074,0,1,0,10.149,0V40.149h97.369a5.074,5.074,0,0,0,0-10.149Z" transform="translate(-9.702 -9.702)" fill="#858585"/>
    </g>
  </g>
</svg>
