<?xml version="1.0"?>
<svg xmlns="http://www.w3.org/2000/svg" xmlns:xlink="http://www.w3.org/1999/xlink" xmlns:svgjs="http://svgjs.com/svgjs" version="1.1" width="512" height="512" x="0" y="0" viewBox="0 0 512 512" style="enable-background:new 0 0 512 512" xml:space="preserve" class=""><g>
<g xmlns="http://www.w3.org/2000/svg">
	<g>
		<path d="M472,25.232H204.64c-6.272-14.384-20.536-24-36.64-24H40c-22.056,0-40,17.944-40,40v136v96v48c0,22.056,17.944,40,40,40    h128c22.056,0,40-17.944,40-40v-48h8c1.872,0,3.68-0.656,5.12-1.848l45.776-38.152H472c22.056,0,40-17.944,40-40v-128    C512,43.176,494.056,25.232,472,25.232z M200,41.232h7.192C204,56.88,191.648,69.232,176,72.424v-7.192    C176,52,186.768,41.232,200,41.232z M16,41.232c0-13.232,10.768-24,24-24h128c7.976,0,15.176,3.952,19.576,10.176    c-10.816,3.568-19.648,11.48-24.184,21.824H16V41.232z M16,65.232h144v80h-48c-2.12,0-4.16,0.84-5.656,2.344l-29.656,29.656H72    c0-4.424-3.584-8-8-8H16V65.232z M16,185.232h40v80H16V185.232z M192,321.232c0,13.232-10.768,24-24,24H40    c-13.232,0-24-10.768-24-24v-8h176V321.232z M192,297.232H16v-16h48c4.416,0,8-3.576,8-8h120V297.232z M213.104,257.232H72v-64h8    c2.12,0,4.16-0.84,5.656-2.344l29.656-29.656H252c6.616,0,12,5.384,12,12c0,6.616-5.384,12-12,12h-52    c-2.12,0-4.16,0.84-5.656,2.344l-32,32c-2.288,2.288-2.976,5.728-1.736,8.72c1.24,2.992,4.16,4.936,7.392,4.936h73.904    L213.104,257.232z M496,193.232c0,13.232-10.768,24-24,24h-7.192c3.192-15.648,15.544-28,31.192-31.192V193.232z M496,169.872    c-24.472,3.528-43.832,22.888-47.36,47.36H264h-76.688l16-16H252c15.44,0,28-12.56,28-28s-12.56-28-28-28h-76v-56.64    c24.472-3.528,43.832-22.888,47.36-47.36h225.28c3.528,24.472,22.888,43.832,47.36,47.36V169.872z M496,72.424    c-15.648-3.192-28-15.544-31.192-31.192H472c13.232,0,24,10.768,24,24V72.424z" fill="#af8103" data-original="#000000" style="" class=""/>
	</g>
</g>
<g xmlns="http://www.w3.org/2000/svg">
	<g>
		<path d="M360,105.232v-4c0-12.64-4.472-23.224-16-26.696V57.232h-16v17.304c-11.528,3.472-24,14.056-24,26.696v8    c0,15.44,12.56,28,28,28c6.616,0,12,5.384,12,12v8c0,6.616-5.384,12-12,12c-6.616,0-12-5.384-12-12v-4h-16v4    c0,12.64,12.472,23.224,24,26.696v17.304h16v-17.304c11.528-3.472,16-14.056,16-26.696v-8c0-15.44-12.56-28-28-28    c-6.616,0-12-5.384-12-12v-8c0-6.616,5.384-12,12-12c6.616,0,12,5.384,12,12v4H360z" fill="#af8103" data-original="#000000" style="" class=""/>
	</g>
</g>
<g xmlns="http://www.w3.org/2000/svg">
	<g>
		<path d="M443.312,353.232H512v-16h-72c-2.12,0-4.16,0.84-5.656,2.344l-45.056,45.064l-158.656-27.592    c-7.632-1.312-15.392,0.768-21.312,5.752c-5.928,4.976-9.32,12.272-9.32,20.008c0,9.264,4.976,17.912,12.976,22.584L387.488,507.2    c4.08,2.376,8.624,3.568,13.168,3.568c4,0,8-0.92,11.696-2.776l85.536-42.76H512v-16h-16c-1.24,0-2.472,0.288-3.576,0.84    L405.2,493.688c-3.08,1.536-6.696,1.432-9.656-0.312L221.032,391.568c-3.104-1.808-5.032-5.168-5.032-8.76    c0-3,1.32-5.832,3.616-7.768c2.304-1.936,5.312-2.768,8.272-2.232l147.568,25.664l-6.472,6.472    c-5.8,5.792-8.984,13.472-8.984,21.664c0,16.88,13.736,30.624,30.632,30.624c8.176,0,15.864-3.184,21.656-8.968l41.368-41.376    l-11.312-11.312l-41.368,41.376c-2.768,2.76-6.44,4.28-10.344,4.28c-8.072,0-14.632-6.56-14.632-14.624    c0-3.848,1.56-7.616,4.288-10.344L443.312,353.232z" fill="#af8103" data-original="#000000" style="" class=""/>
	</g>
</g>
<g xmlns="http://www.w3.org/2000/svg">
	<g>
		<rect x="376" y="249.232" width="16" height="16" fill="#af8103" data-original="#000000" style="" class=""/>
	</g>
</g>
<g xmlns="http://www.w3.org/2000/svg">
	<g>
		<rect x="376" y="281.232" width="16" height="16" fill="#af8103" data-original="#000000" style="" class=""/>
	</g>
</g>
<g xmlns="http://www.w3.org/2000/svg">
	<g>
		<rect x="408" y="249.232" width="16" height="16" fill="#af8103" data-original="#000000" style="" class=""/>
	</g>
</g>
<g xmlns="http://www.w3.org/2000/svg">
	<g>
		<rect x="344" y="249.232" width="16" height="16" fill="#af8103" data-original="#000000" style="" class=""/>
	</g>
</g>
<g xmlns="http://www.w3.org/2000/svg">
	<g>
		<rect x="344" y="281.232" width="16" height="16" fill="#af8103" data-original="#000000" style="" class=""/>
	</g>
</g>
<g xmlns="http://www.w3.org/2000/svg">
	<g>
		<rect x="344" y="313.232" width="16" height="16" fill="#af8103" data-original="#000000" style="" class=""/>
	</g>
</g>
<g xmlns="http://www.w3.org/2000/svg">
	<g>
		<rect x="312" y="249.232" width="16" height="16" fill="#af8103" data-original="#000000" style="" class=""/>
	</g>
</g>
<g xmlns="http://www.w3.org/2000/svg">
	<g>
		<rect x="312" y="281.232" width="16" height="16" fill="#af8103" data-original="#000000" style="" class=""/>
	</g>
</g>
<g xmlns="http://www.w3.org/2000/svg">
	<g>
		<rect x="280" y="249.232" width="16" height="16" fill="#af8103" data-original="#000000" style="" class=""/>
	</g>
</g>
<g xmlns="http://www.w3.org/2000/svg">
</g>
<g xmlns="http://www.w3.org/2000/svg">
</g>
<g xmlns="http://www.w3.org/2000/svg">
</g>
<g xmlns="http://www.w3.org/2000/svg">
</g>
<g xmlns="http://www.w3.org/2000/svg">
</g>
<g xmlns="http://www.w3.org/2000/svg">
</g>
<g xmlns="http://www.w3.org/2000/svg">
</g>
<g xmlns="http://www.w3.org/2000/svg">
</g>
<g xmlns="http://www.w3.org/2000/svg">
</g>
<g xmlns="http://www.w3.org/2000/svg">
</g>
<g xmlns="http://www.w3.org/2000/svg">
</g>
<g xmlns="http://www.w3.org/2000/svg">
</g>
<g xmlns="http://www.w3.org/2000/svg">
</g>
<g xmlns="http://www.w3.org/2000/svg">
</g>
<g xmlns="http://www.w3.org/2000/svg">
</g>
</g></svg>
